<svg xmlns="http://www.w3.org/2000/svg" version="1.1" viewBox="-25306.12506168291 -242054.4697650598 240395.5167893267 269729.6610637956">
<line x1="89236.74210369163" y1="-163576.6114322557" x2="86536.74210369165" y2="-163576.6114322557" stroke="black" stroke-width="1.00" />
<line x1="86836.74210369165" y1="-164676.6114322557" x2="86836.74210369165" y2="-166176.6114322557" stroke="black" stroke-width="1.00" />
<line x1="67836.74210369165" y1="-164676.6114322557" x2="67836.74210369165" y2="-166176.6114322557" stroke="black" stroke-width="1.00" />
<line x1="78934.90475251197" y1="-164676.6114322553" x2="78934.90475251198" y2="-166176.6114322557" stroke="black" stroke-width="1.00" />
<line x1="80836.90475197366" y1="-164676.6114322553" x2="80836.90475197506" y2="-162476.6114322557" stroke="black" stroke-width="1.00" />
<line x1="76038.74210315428" y1="-171976.9817960118" x2="78636.74210369165" y2="-171976.9817960118" stroke="black" stroke-width="1.00" />
<line x1="75738.74210315451" y1="-164676.6114322553" x2="75738.7421031545" y2="-166176.6114322557" stroke="black" stroke-width="1.00" />
<line x1="73716.74210111794" y1="-164676.6114322553" x2="80836.74210315474" y2="-164676.6114322553" stroke="black" stroke-width="1.00" />
<line x1="73836.74210369305" y1="-164676.6114322553" x2="73836.74210369165" y2="-162476.6114322557" stroke="black" stroke-width="1.00" />
<line x1="69036.74210369165" y1="-166176.6114322557" x2="69036.74210369163" y2="-172776.6114322557" stroke="black" stroke-width="1.00" />
<line x1="86536.74210369163" y1="-158876.6114322557" x2="86536.74210369165" y2="-164676.6114322557" stroke="black" stroke-width="1.00" />
<line x1="89236.74210369165" y1="-163576.6114322557" x2="89236.74210369166" y2="-170676.6114322557" stroke="black" stroke-width="1.00" />
<line x1="85636.74210369165" y1="-166176.6114322557" x2="85636.74210369163" y2="-172776.6114322557" stroke="black" stroke-width="1.00" />
<line x1="80836.74210369165" y1="-158876.6114322557" x2="80836.74210369165" y2="-170676.6114322558" stroke="black" stroke-width="1.00" />
<line x1="78636.74210369166" y1="-162476.6114322557" x2="78636.74210369166" y2="-164676.6114322557" stroke="black" stroke-width="1.00" />
<line x1="78136.74210369165" y1="-158876.6114322557" x2="78136.74210369165" y2="-162476.6114322557" stroke="black" stroke-width="1.00" />
<line x1="76536.74210369165" y1="-158876.6114322557" x2="76536.74210369166" y2="-162476.6114322557" stroke="black" stroke-width="1.00" />
<line x1="76036.74210369166" y1="-162476.6114322557" x2="76036.74210369165" y2="-164676.6114322553" stroke="black" stroke-width="1.00" />
<line x1="73836.74210369163" y1="-158876.6114322557" x2="73836.74210369165" y2="-170676.6114322558" stroke="black" stroke-width="1.00" />
<line x1="68136.74210369165" y1="-158876.6114322557" x2="68136.74210369165" y2="-164676.6114322557" stroke="black" stroke-width="1.00" />
<line x1="65436.74210369165" y1="-163576.6114322557" x2="65436.74210369164" y2="-170676.6114322558" stroke="black" stroke-width="1.00" />
<line x1="69036.74210369163" y1="-172776.6114322557" x2="76036.74210369165" y2="-172776.6114322557" stroke="black" stroke-width="1.00" />
<line x1="65436.74210369164" y1="-170676.6114322558" x2="73836.74210369166" y2="-170676.6114322558" stroke="black" stroke-width="1.00" />
<line x1="65436.74210369165" y1="-166176.6114322557" x2="89236.74210369166" y2="-166176.6114322557" stroke="black" stroke-width="1.00" />
<line x1="65436.74210369165" y1="-163576.6114322557" x2="68136.74210369165" y2="-163576.6114322557" stroke="black" stroke-width="1.00" />
<line x1="73836.74210369165" y1="-162476.6114322557" x2="80836.74210369166" y2="-162476.6114322557" stroke="black" stroke-width="1.00" />
<line x1="68136.74210369165" y1="-160976.6114322557" x2="73836.74210369163" y2="-160976.6114322557" stroke="black" stroke-width="1.00" />
<line x1="68136.74210369165" y1="-158876.6114322557" x2="86536.74210369163" y2="-158876.6114322557" stroke="black" stroke-width="1.00" />
<line x1="76036.74210369166" y1="-166176.6114322557" x2="76036.74210369165" y2="-172776.6114322557" stroke="black" stroke-width="1.00" />
<line x1="74086.74210369031" y1="-163076.6114319745" x2="74236.74210369034" y2="-163076.6114319745" stroke="black" stroke-width="1.00" />
<line x1="74086.74210369033" y1="-164076.6114319746" x2="74086.74210369031" y2="-163076.6114319745" stroke="black" stroke-width="1.00" />
<line x1="74386.74210369037" y1="-162901.6114319746" x2="75786.74210369035" y2="-162901.6114319746" stroke="black" stroke-width="1.00" />
<line x1="74236.74210369034" y1="-163076.6114319745" x2="74236.74210369034" y2="-164076.6114319746" stroke="black" stroke-width="1.00" />
<line x1="74236.74210369034" y1="-164076.6114319746" x2="74086.74210369033" y2="-164076.6114319746" stroke="black" stroke-width="1.00" />
<line x1="75786.74210369035" y1="-162901.6114319746" x2="75786.74210369037" y2="-164251.6114319745" stroke="black" stroke-width="1.00" />
<line x1="75786.74210369037" y1="-164251.6114319745" x2="74386.74210369038" y2="-164251.6114319746" stroke="black" stroke-width="1.00" />
<line x1="74386.74210369038" y1="-164251.6114319746" x2="74386.74210369037" y2="-162901.6114319746" stroke="black" stroke-width="1.00" />
<line x1="74386.74210369037" y1="-162901.6114319746" x2="75786.74210369037" y2="-164251.6114319745" stroke="black" stroke-width="1.00" />
<line x1="75786.74210369035" y1="-162901.6114319746" x2="74386.74210369038" y2="-164251.6114319746" stroke="black" stroke-width="1.00" />
<path d="M 68036.74210369165 -160876.6114322556 L 68036.74210369165 -158776.6114322558 L 73736.74210369123 -158776.6114322559 " fill="none" stroke="black" stroke-width="1.00" />
<path d="M 68236.74210369165 -160876.6114322556 L 68236.74210369165 -158976.6114322558 L 73736.74210369123 -158976.6114322559 " fill="none" stroke="black" stroke-width="1.00" />
<path d="M 69136.7421036918 -170776.6114322558 L 69136.7421036918 -172676.6114322557 L 75936.74210369165 -172676.6114322557 " fill="none" stroke="black" stroke-width="1.00" />
<path d="M 68936.7421036918 -170776.6114322558 L 68936.7421036918 -172876.6114322557 L 75936.74210369165 -172876.6114322557 " fill="none" stroke="black" stroke-width="1.00" />
<line x1="76036.742103153" y1="-167176.6114322557" x2="78636.90475251194" y2="-167176.6114322557" stroke="black" stroke-width="1.00" />
<line x1="76636.74210315298" y1="-166176.6114322557" x2="76636.742103153" y2="-167176.6114322557" stroke="black" stroke-width="1.00" />
<line x1="75738.7421031545" y1="-166176.6114322557" x2="79134.90475249769" y2="-166176.6114322557" stroke="black" stroke-width="1.00" />
<line x1="66136.74210369175" y1="-166076.6114322551" x2="66136.74210369177" y2="-165076.6114322544" stroke="black" stroke-width="1.00" />
<line x1="65536.74210369175" y1="-165076.6114322544" x2="66136.74210369177" y2="-165076.6114322544" stroke="black" stroke-width="1.00" />
<line x1="89136.74210368881" y1="-165076.6114322544" x2="88536.7421036888" y2="-165076.6114322544" stroke="black" stroke-width="1.00" />
<line x1="88536.74210368881" y1="-166076.6114322551" x2="88536.7421036888" y2="-165076.6114322544" stroke="black" stroke-width="1.00" />
<path d="M 86436.74210368891 -160876.6114322556 L 86436.74210368891 -158976.6114322558 L 80936.74210368934 -158976.6114322559 " fill="none" stroke="black" stroke-width="1.00" />
<path d="M 86636.74210368891 -160876.6114322556 L 86636.74210368891 -158776.6114322558 L 80936.74210368934 -158776.6114322559 " fill="none" stroke="black" stroke-width="1.00" />
<line x1="78886.74210369021" y1="-162901.6114319746" x2="80286.74210369018" y2="-164251.6114319746" stroke="black" stroke-width="1.00" />
<line x1="80286.7421036902" y1="-162901.6114319746" x2="78886.7421036902" y2="-164251.6114319745" stroke="black" stroke-width="1.00" />
<line x1="80286.74210369018" y1="-164251.6114319746" x2="80286.7421036902" y2="-162901.6114319746" stroke="black" stroke-width="1.00" />
<line x1="78886.7421036902" y1="-164251.6114319745" x2="80286.74210369018" y2="-164251.6114319746" stroke="black" stroke-width="1.00" />
<line x1="78886.74210369021" y1="-162901.6114319746" x2="78886.7421036902" y2="-164251.6114319745" stroke="black" stroke-width="1.00" />
<line x1="80436.74210369022" y1="-164076.6114319746" x2="80586.74210369024" y2="-164076.6114319746" stroke="black" stroke-width="1.00" />
<line x1="80436.74210369022" y1="-163076.6114319745" x2="80436.74210369022" y2="-164076.6114319746" stroke="black" stroke-width="1.00" />
<line x1="80286.7421036902" y1="-162901.6114319746" x2="78886.74210369021" y2="-162901.6114319746" stroke="black" stroke-width="1.00" />
<line x1="80586.74210369024" y1="-164076.6114319746" x2="80586.74210369025" y2="-163076.6114319745" stroke="black" stroke-width="1.00" />
<line x1="80586.74210369025" y1="-163076.6114319745" x2="80436.74210369022" y2="-163076.6114319745" stroke="black" stroke-width="1.00" />
<line x1="78636.74210369165" y1="-166176.6114322557" x2="78636.74210369165" y2="-172776.6114322557" stroke="black" stroke-width="1.00" />
<path d="M 68725.34593140648 -170554.5006735954 L 68725.34593140648 -170854.5006735954 " fill="none" stroke="black" stroke-width="1.00" />
<path d="M 86057.563379406 -170554.5006735954 L 86057.563379406 -170854.5006735954 " fill="none" stroke="black" stroke-width="1.00" />
<line x1="86536.74210369163" y1="-163576.6114322557" x2="89236.74210369166" y2="-163576.6114322557" stroke="black" stroke-width="1.00" />
<line x1="68136.74210369165" y1="-163576.6114322557" x2="65436.74210369165" y2="-163576.6114322557" stroke="black" stroke-width="1.00" />
<path d="M 69261.05300973362 -170531.8909231639 L 69261.05300973362 -170831.8909231639 " fill="none" stroke="black" stroke-width="1.00" />
<path d="M 85383.44760303717 -170538.9358498567 L 85383.44760303717 -170838.9358498567 " fill="none" stroke="black" stroke-width="1.00" />
<line x1="85736.74210368877" y1="-170776.6114322558" x2="85736.74210368877" y2="-172876.6114322557" stroke="black" stroke-width="1.00" />
<line x1="85736.74210368877" y1="-172876.6114322557" x2="78736.74210368891" y2="-172876.6114322557" stroke="black" stroke-width="1.00" />
<line x1="85536.74210368877" y1="-170776.6114322558" x2="85536.74210368877" y2="-172676.6114322557" stroke="black" stroke-width="1.00" />
<line x1="85536.74210368877" y1="-172676.6114322557" x2="78736.74210368891" y2="-172676.6114322557" stroke="black" stroke-width="1.00" />
<path d="M 68936.7421036918 -172876.6114322557 L 69236.7421036918 -172876.6114322557 L 69236.7421036918 -172576.6114322557 L 68936.7421036918 -172576.6114322557 Z" fill="none" stroke="black" stroke-width="1.00" />
<path d="M 85436.74210368877 -172876.6114322557 L 85736.74210368877 -172876.6114322557 L 85736.74210368877 -172576.6114322557 L 85436.74210368877 -172576.6114322557 Z" fill="none" stroke="black" stroke-width="1.00" />
<line x1="80836.74210369166" y1="-170676.6114322558" x2="89236.74210369166" y2="-170676.6114322557" stroke="black" stroke-width="1.00" />
<path d="M 75836.74210369165 -172876.6114322557 L 76136.74210369165 -172876.6114322557 L 76136.74210369165 -172576.6114322557 L 75836.74210369165 -172576.6114322557 Z" fill="none" stroke="black" stroke-width="1.00" />
<path d="M 78536.74210368918 -172876.7966141336 L 78836.74210368918 -172876.7966141336 L 78836.74210368918 -172576.7966141336 L 78536.74210368918 -172576.7966141336 Z" fill="none" stroke="black" stroke-width="1.00" />
<line x1="78636.74210369165" y1="-172776.6114322557" x2="85636.74210369163" y2="-172776.6114322557" stroke="black" stroke-width="1.00" />
<line x1="80836.74210369165" y1="-160976.6114322557" x2="86536.74210369163" y2="-160976.6114322557" stroke="black" stroke-width="1.00" />
<line x1="76636.74210369163" y1="-160976.6114322557" x2="78036.74210368899" y2="-160976.6114322557" stroke="black" stroke-width="1.00" />
<line x1="75836.74210369005" y1="-159526.6114322542" x2="75836.74210368999" y2="-162376.6114322557" stroke="black" stroke-width="1.00" />
<path d="M 75986.74210369165 -158976.6114322565 L 76436.74210369165 -158976.6114322565 L 76436.74210369893 -159576.780334542 L 75986.74210369893 -159576.780334542 Z" fill="none" stroke="black" stroke-width="1.00" />
<path d="M 76436.7421036973 -159576.7803345415 L 76317.02312673241 -159082.5394113648 L 75986.74210368839 -158976.611432256 " fill="none" stroke="black" stroke-width="1.00" />
<line x1="73936.74210369163" y1="-159526.6114322541" x2="75836.74210369005" y2="-159526.6114322542" stroke="black" stroke-width="1.00" />
<line x1="80736.74210368893" y1="-159526.6114322541" x2="78836.74210369051" y2="-159526.6114322542" stroke="black" stroke-width="1.00" />
<path d="M 78686.74210368891 -158976.6114322565 L 78236.74210368891 -158976.6114322565 L 78236.74210368164 -159576.780334542 L 78686.74210368164 -159576.780334542 Z" fill="none" stroke="black" stroke-width="1.00" />
<line x1="78836.74210369051" y1="-159526.6114322542" x2="78836.74210369057" y2="-162376.6114322557" stroke="black" stroke-width="1.00" />
<path d="M 78236.74210368327 -159576.7803345415 L 78356.46108064815 -159082.5394113648 L 78686.74210369217 -158976.611432256 " fill="none" stroke="black" stroke-width="1.00" />
<line x1="65336.74210369165" y1="-170776.6114322558" x2="65336.74210369179" y2="-166176.6114322551" stroke="black" stroke-width="1.00" />
<line x1="65536.74210369165" y1="-170576.6114322558" x2="65536.7421036918" y2="-166176.6114322557" stroke="black" stroke-width="1.00" />
<line x1="65536.7421036917" y1="-163676.6114322547" x2="65974.01032078874" y2="-163676.6114322547" stroke="black" stroke-width="1.00" />
<line x1="65974.01032078874" y1="-163676.6114322547" x2="65974.01032078874" y2="-163476.6114322547" stroke="black" stroke-width="1.00" />
<line x1="65974.01032078874" y1="-163476.6114322547" x2="65336.74210369169" y2="-163476.6114322547" stroke="black" stroke-width="1.00" />
<line x1="68036.74210369165" y1="-163476.6114322547" x2="67474.01032078874" y2="-163476.6114322547" stroke="black" stroke-width="1.00" />
<line x1="67474.01032078874" y1="-163476.6114322547" x2="67474.01032078874" y2="-163676.6114322547" stroke="black" stroke-width="1.00" />
<line x1="67474.01032078874" y1="-163676.6114322547" x2="68036.74210369165" y2="-163676.6114322547" stroke="black" stroke-width="1.00" />
<line x1="68236.74210369165" y1="-161076.6114322557" x2="70536.74210369156" y2="-161076.6114322557" stroke="black" stroke-width="1.00" />
<line x1="70536.74210369156" y1="-161076.6114322557" x2="70536.74210369156" y2="-160876.6114322557" stroke="black" stroke-width="1.00" />
<line x1="70536.74210369156" y1="-160876.6114322557" x2="68036.74210369165" y2="-160876.6114322557" stroke="black" stroke-width="1.00" />
<line x1="73736.74210369163" y1="-160876.6114322557" x2="72936.74210369156" y2="-160876.6114322557" stroke="black" stroke-width="1.00" />
<line x1="72936.74210369156" y1="-160876.6114322557" x2="72936.74210369156" y2="-161076.6114322557" stroke="black" stroke-width="1.00" />
<line x1="72936.74210369156" y1="-161076.6114322557" x2="73736.74210369163" y2="-161076.6114322557" stroke="black" stroke-width="1.00" />
<line x1="73736.74210369163" y1="-160876.6114322557" x2="73736.74210369163" y2="-158776.6114322557" stroke="black" stroke-width="1.00" />
<line x1="73936.74210369163" y1="-160976.6114322557" x2="73936.74210369163" y2="-158976.6114322557" stroke="black" stroke-width="1.00" />
<line x1="73936.74210369163" y1="-158976.6114322557" x2="73936.74210369163" y2="-158776.6114322557" stroke="black" stroke-width="1.00" />
<line x1="73936.74210369163" y1="-158776.6114322557" x2="73736.74210369163" y2="-158776.6114322557" stroke="black" stroke-width="1.00" />
<line x1="76636.74210369165" y1="-158776.6114322557" x2="75436.74210369163" y2="-158776.6114322557" stroke="black" stroke-width="1.00" />
<line x1="75436.74210369163" y1="-158776.6114322557" x2="75436.74210369163" y2="-158976.6114322557" stroke="black" stroke-width="1.00" />
<line x1="75436.74210369163" y1="-158976.6114322557" x2="76436.74210369165" y2="-158976.6114322557" stroke="black" stroke-width="1.00" />
<line x1="76636.74210369165" y1="-158776.6114322557" x2="76636.74210369165" y2="-162376.6114322558" stroke="black" stroke-width="1.00" />
<line x1="76436.74210369165" y1="-158976.6114322557" x2="76436.74210369165" y2="-162376.6114322557" stroke="black" stroke-width="1.00" />
<line x1="78036.74210368891" y1="-162376.611432256" x2="78036.74210369028" y2="-162576.611432256" stroke="black" stroke-width="1.00" />
<line x1="78036.74210369028" y1="-162576.611432256" x2="78136.7421036889" y2="-162576.611432256" stroke="black" stroke-width="1.00" />
<line x1="76536.74210369162" y1="-162576.6114322557" x2="76636.74210369037" y2="-162576.6114322558" stroke="black" stroke-width="1.00" />
<line x1="76636.74210369037" y1="-162576.6114322558" x2="76636.7421036904" y2="-162376.6114322558" stroke="black" stroke-width="1.00" />
<line x1="73936.74210369165" y1="-162376.6114322557" x2="73936.74210369165" y2="-162276.6114322552" stroke="black" stroke-width="1.00" />
<line x1="73936.74210369165" y1="-162276.6114322552" x2="73736.74210369165" y2="-162276.6114322552" stroke="black" stroke-width="1.00" />
<line x1="73736.74210369165" y1="-162276.6114322552" x2="73736.74210369165" y2="-162476.6114322557" stroke="black" stroke-width="1.00" />
<line x1="73736.74210369163" y1="-161076.6114322557" x2="73736.74210369163" y2="-161476.6114322552" stroke="black" stroke-width="1.00" />
<line x1="73736.74210369163" y1="-161476.6114322552" x2="73936.74210369163" y2="-161476.6114322552" stroke="black" stroke-width="1.00" />
<line x1="73936.74210369163" y1="-161476.6114322552" x2="73936.74210369163" y2="-160976.6114322557" stroke="black" stroke-width="1.00" />
<line x1="73936.74210369171" y1="-162576.6114322557" x2="73936.74210369299" y2="-164576.6114322557" stroke="black" stroke-width="1.00" />
<line x1="73736.74210369165" y1="-162476.6114322558" x2="73736.7421036931" y2="-164776.6114322558" stroke="black" stroke-width="1.00" />
<line x1="73936.74210369299" y1="-164576.6114322557" x2="75738.74210315394" y2="-164576.6114322554" stroke="black" stroke-width="1.00" />
<line x1="73736.7421036931" y1="-164776.6114322558" x2="75638.74210315451" y2="-164776.6114322554" stroke="black" stroke-width="1.00" />
<line x1="75936.74210369165" y1="-162576.6114322557" x2="73936.74210369171" y2="-162576.6114322557" stroke="black" stroke-width="1.00" />
<line x1="76036.74210369217" y1="-162376.6114322557" x2="73936.74210369165" y2="-162376.6114322557" stroke="black" stroke-width="1.00" />
<line x1="76136.74210369165" y1="-164776.6114322553" x2="76136.74210369165" y2="-164126.6114319746" stroke="black" stroke-width="1.00" />
<line x1="76136.74210369165" y1="-164126.6114319746" x2="75936.74210369165" y2="-164126.6114319746" stroke="black" stroke-width="1.00" />
<line x1="75936.74210369165" y1="-164126.6114319746" x2="75936.74210369165" y2="-164576.6114322553" stroke="black" stroke-width="1.00" />
<line x1="75936.74210369165" y1="-162576.6114322557" x2="75936.74210369165" y2="-163026.6114319746" stroke="black" stroke-width="1.00" />
<line x1="75936.74210369165" y1="-163026.6114319746" x2="76136.74210369165" y2="-163026.6114319746" stroke="black" stroke-width="1.00" />
<line x1="76136.74210369165" y1="-163026.6114319746" x2="76136.74210369165" y2="-162576.6114322557" stroke="black" stroke-width="1.00" />
<line x1="65336.74210369165" y1="-170776.6114322558" x2="66186.74210369162" y2="-170776.6114322558" stroke="black" stroke-width="1.00" />
<line x1="66186.74210369162" y1="-170776.6114322558" x2="66186.74210369162" y2="-170576.6114322558" stroke="black" stroke-width="1.00" />
<line x1="66186.74210369162" y1="-170576.6114322558" x2="65536.74210369165" y2="-170576.6114322558" stroke="black" stroke-width="1.00" />
<line x1="68936.74210369163" y1="-170576.6114322558" x2="68286.74210369162" y2="-170576.6114322558" stroke="black" stroke-width="1.00" />
<line x1="68286.74210369162" y1="-170576.6114322558" x2="68286.74210369162" y2="-170776.6114322558" stroke="black" stroke-width="1.00" />
<line x1="68286.74210369162" y1="-170776.6114322558" x2="69036.7421036918" y2="-170776.6114322558" stroke="black" stroke-width="1.00" />
<line x1="73736.74210369165" y1="-170576.6114322558" x2="73736.74210369165" y2="-166076.6114322557" stroke="black" stroke-width="1.00" />
<line x1="73936.74210369165" y1="-170776.6114322558" x2="73936.74210369165" y2="-166276.6114322557" stroke="black" stroke-width="1.00" />
<line x1="73936.74210369165" y1="-166276.6114322557" x2="74110.80052060955" y2="-166276.6114322557" stroke="black" stroke-width="1.00" />
<line x1="74110.80052060955" y1="-166276.6114322557" x2="74110.80052060955" y2="-166076.6114322558" stroke="black" stroke-width="1.00" />
<line x1="74110.80052060955" y1="-166076.6114322558" x2="73736.74210369165" y2="-166076.6114322557" stroke="black" stroke-width="1.00" />
<line x1="75638.7421031545" y1="-166076.6114322558" x2="75510.80052060955" y2="-166076.6114322558" stroke="black" stroke-width="1.00" />
<line x1="75510.80052060955" y1="-166076.6114322558" x2="75510.80052060955" y2="-166276.6114322558" stroke="black" stroke-width="1.00" />
<line x1="75510.80052060955" y1="-166276.6114322558" x2="75738.74210315394" y2="-166276.6114322558" stroke="black" stroke-width="1.00" />
<line x1="76136.74210369165" y1="-166076.6114322557" x2="76136.74210369165" y2="-167076.6114322554" stroke="black" stroke-width="1.00" />
<line x1="75936.74210369165" y1="-166276.6114322558" x2="75936.74210369165" y2="-167176.6114322554" stroke="black" stroke-width="1.00" />
<line x1="68036.74210369165" y1="-164676.6114322487" x2="68036.74210369165" y2="-163676.6114322547" stroke="black" stroke-width="1.00" />
<line x1="68236.74210369165" y1="-164776.6114322487" x2="68236.74210369165" y2="-163576.6114322547" stroke="black" stroke-width="1.00" />
<line x1="67836.74210369184" y1="-164776.6114322487" x2="67836.74210369184" y2="-165176.6114322571" stroke="black" stroke-width="1.00" />
<line x1="67836.74210369184" y1="-165176.6114322571" x2="67936.74210369184" y2="-165176.6114322571" stroke="black" stroke-width="1.00" />
<line x1="67936.74210369184" y1="-165176.6114322571" x2="67936.74210369184" y2="-164776.6114322487" stroke="black" stroke-width="1.00" />
<line x1="67936.74210369184" y1="-166076.6114322557" x2="67936.74210369184" y2="-165976.6114322571" stroke="black" stroke-width="1.00" />
<line x1="67936.74210369184" y1="-165976.6114322571" x2="67836.74210369184" y2="-165976.6114322571" stroke="black" stroke-width="1.00" />
<line x1="67836.74210369184" y1="-165976.6114322571" x2="67836.74210369184" y2="-166076.6114322557" stroke="black" stroke-width="1.00" />
<line x1="67736.74210369165" y1="-166076.6114322557" x2="67836.74210369184" y2="-166076.6114322557" stroke="black" stroke-width="1.00" />
<line x1="67836.74210369165" y1="-166176.6114322557" x2="67936.38872124972" y2="-166176.6114322557" stroke="black" stroke-width="1.00" />
<line x1="69036.7421036918" y1="-170776.6114322558" x2="70236.7421036916" y2="-170776.6114322558" stroke="black" stroke-width="1.00" />
<line x1="70236.7421036916" y1="-170776.6114322558" x2="70236.7421036916" y2="-170576.6114322558" stroke="black" stroke-width="1.00" />
<line x1="70236.7421036916" y1="-170576.6114322558" x2="69036.74210369163" y2="-170576.6114322558" stroke="black" stroke-width="1.00" />
<line x1="73736.74210369165" y1="-170576.6114322558" x2="72636.7421036916" y2="-170576.6114322558" stroke="black" stroke-width="1.00" />
<line x1="72636.7421036916" y1="-170576.6114322558" x2="72636.7421036916" y2="-170776.6114322558" stroke="black" stroke-width="1.00" />
<line x1="72636.7421036916" y1="-170776.6114322558" x2="73936.74210369165" y2="-170776.6114322558" stroke="black" stroke-width="1.00" />
<line x1="69036.74210369165" y1="-166076.6114322557" x2="69036.74210369163" y2="-170576.6114322558" stroke="black" stroke-width="1.00" />
<line x1="68936.74210369165" y1="-166176.6114322557" x2="68936.74210369163" y2="-170576.6114322558" stroke="black" stroke-width="1.00" />
<line x1="67836.74210369165" y1="-166176.6114322557" x2="65536.7421036918" y2="-166176.6114322557" stroke="black" stroke-width="1.00" />
<line x1="67736.74210369165" y1="-166076.6114322557" x2="65536.7421036918" y2="-166076.6114322557" stroke="black" stroke-width="1.00" />
<line x1="67836.74210369165" y1="-166176.6114322557" x2="67836.74210369165" y2="-166176.6114322557" stroke="black" stroke-width="1.00" />
<line x1="67736.74210369165" y1="-166076.6114322557" x2="67736.74210369165" y2="-166076.6114322557" stroke="black" stroke-width="1.00" />
<line x1="75738.74210315394" y1="-164576.6114322554" x2="75936.74210369165" y2="-164576.6114322553" stroke="black" stroke-width="1.00" />
<line x1="75838.74210315451" y1="-164776.6114322554" x2="76136.74210369165" y2="-164776.6114322553" stroke="black" stroke-width="1.00" />
<line x1="75838.7421031545" y1="-166076.6114322558" x2="76136.74210369165" y2="-166076.6114322557" stroke="black" stroke-width="1.00" />
<line x1="75738.74210315397" y1="-166276.6114322558" x2="75936.74210369165" y2="-166276.6114322558" stroke="black" stroke-width="1.00" />
<line x1="75638.74210315451" y1="-164776.6114322554" x2="75638.74210315451" y2="-164826.6114322549" stroke="black" stroke-width="1.00" />
<line x1="75638.74210315451" y1="-164826.6114322549" x2="75838.74210315451" y2="-164826.6114322549" stroke="black" stroke-width="1.00" />
<line x1="75838.74210315451" y1="-164826.6114322549" x2="75838.74210315451" y2="-164776.6114322554" stroke="black" stroke-width="1.00" />
<line x1="75838.7421031545" y1="-166076.6114322558" x2="75838.7421031545" y2="-166026.6114322549" stroke="black" stroke-width="1.00" />
<line x1="75838.7421031545" y1="-166026.6114322549" x2="75638.7421031545" y2="-166026.6114322549" stroke="black" stroke-width="1.00" />
<line x1="75638.7421031545" y1="-166026.6114322549" x2="75638.7421031545" y2="-166076.6114322558" stroke="black" stroke-width="1.00" />
<line x1="68236.74210369165" y1="-163576.6114322547" x2="68236.74210369165" y2="-162576.6114322556" stroke="black" stroke-width="1.00" />
<line x1="68236.74210369165" y1="-162576.6114322556" x2="68036.74210369165" y2="-162576.6114322556" stroke="black" stroke-width="1.00" />
<line x1="68036.74210369165" y1="-162576.6114322556" x2="68036.74210369165" y2="-163476.6114322547" stroke="black" stroke-width="1.00" />
<line x1="68036.74210369165" y1="-160876.6114322557" x2="68036.74210369165" y2="-161376.6114322556" stroke="black" stroke-width="1.00" />
<line x1="68036.74210369165" y1="-161376.6114322556" x2="68236.74210369165" y2="-161376.6114322556" stroke="black" stroke-width="1.00" />
<line x1="68236.74210369165" y1="-161376.6114322556" x2="68236.74210369165" y2="-161076.6114322557" stroke="black" stroke-width="1.00" />
<line x1="67936.38872124972" y1="-166176.6114322557" x2="67936.74210369172" y2="-166176.6114322557" stroke="black" stroke-width="1.00" />
<line x1="67936.74210369172" y1="-166176.6114322557" x2="67936.74210369172" y2="-166076.6114322557" stroke="black" stroke-width="1.00" />
<line x1="69036.74210369165" y1="-166076.6114322557" x2="68836.74210369172" y2="-166076.6114322557" stroke="black" stroke-width="1.00" />
<line x1="68836.74210369172" y1="-166076.6114322557" x2="68836.74210369172" y2="-166176.6114322557" stroke="black" stroke-width="1.00" />
<line x1="68836.74210369172" y1="-166176.6114322557" x2="68936.74210369165" y2="-166176.6114322557" stroke="black" stroke-width="1.00" />
<line x1="67836.74210369184" y1="-164776.6114322487" x2="67836.38872124953" y2="-164776.6114322487" stroke="black" stroke-width="1.00" />
<line x1="67936.74210369184" y1="-164676.6114322487" x2="67836.38872124953" y2="-164676.6114322487" stroke="black" stroke-width="1.00" />
<line x1="67836.38872124953" y1="-164776.6114322487" x2="67836.38872124953" y2="-164676.6114322487" stroke="black" stroke-width="1.00" />
<line x1="68236.74210369165" y1="-164776.6114322487" x2="67936.74210369184" y2="-164776.6114322487" stroke="black" stroke-width="1.00" />
<line x1="68036.74210369165" y1="-164676.6114322487" x2="67936.74210369184" y2="-164676.6114322487" stroke="black" stroke-width="1.00" />
<line x1="73936.74210369165" y1="-162276.6114322552" x2="73936.74210369165" y2="-161476.6114322552" stroke="black" stroke-width="1.00" />
<line x1="70236.7421036916" y1="-170776.6114322558" x2="72636.7421036916" y2="-170776.6114322558" stroke="black" stroke-width="1.00" />
<line x1="70536.74210369156" y1="-160876.6114322557" x2="72936.74210369156" y2="-160876.6114322557" stroke="black" stroke-width="1.00" />
<line x1="67836.74210369184" y1="-165176.6114322571" x2="67836.74210369184" y2="-165976.6114322571" stroke="black" stroke-width="1.00" />
<line x1="65336.74210369179" y1="-166176.6114322551" x2="65336.74210369169" y2="-163476.6114322547" stroke="black" stroke-width="1.00" />
<line x1="65536.7421036918" y1="-166076.6114322557" x2="65536.7421036917" y2="-163676.6114322547" stroke="black" stroke-width="1.00" />
<line x1="74110.80052060955" y1="-166276.6114322558" x2="75510.80052060955" y2="-166276.6114322558" stroke="black" stroke-width="1.00" />
<line x1="76736.74210315295" y1="-166276.6114323028" x2="76736.74210315295" y2="-166876.6114323028" stroke="black" stroke-width="1.00" />
<line x1="76636.74210315295" y1="-166276.6114323028" x2="76636.74210315295" y2="-166876.6114323028" stroke="black" stroke-width="1.00" />
<line x1="78036.904752499" y1="-166276.6114323024" x2="78036.904752499" y2="-166876.6114323024" stroke="black" stroke-width="1.00" />
<line x1="78136.904752499" y1="-166276.6114323024" x2="78136.904752499" y2="-166876.6114323024" stroke="black" stroke-width="1.00" />
<line x1="76736.74210315298" y1="-167276.6114322554" x2="76136.74210369165" y2="-167276.6114322554" stroke="black" stroke-width="1.00" />
<line x1="76636.74210315297" y1="-167076.6114322554" x2="76136.74210369165" y2="-167076.6114322554" stroke="black" stroke-width="1.00" />
<line x1="78036.90475249899" y1="-167076.6114322554" x2="77986.74210520549" y2="-167076.6114322554" stroke="black" stroke-width="1.00" />
<line x1="77986.74210520549" y1="-167076.6114322554" x2="77986.74210520549" y2="-167276.6114322554" stroke="black" stroke-width="1.00" />
<line x1="77986.74210520549" y1="-167276.6114322554" x2="78036.90475249899" y2="-167276.6114322554" stroke="black" stroke-width="1.00" />
<line x1="76736.74210315298" y1="-167276.6114322554" x2="76786.74210520549" y2="-167276.6114322554" stroke="black" stroke-width="1.00" />
<line x1="76786.74210520549" y1="-167276.6114322554" x2="76786.74210520549" y2="-167076.6114322554" stroke="black" stroke-width="1.00" />
<line x1="76786.74210520549" y1="-167076.6114322554" x2="76736.74210315297" y2="-167076.6114322554" stroke="black" stroke-width="1.00" />
<line x1="78036.904752499" y1="-166076.6114322554" x2="78036.904752499" y2="-166276.6114323024" stroke="black" stroke-width="1.00" />
<line x1="78036.904752499" y1="-166276.6114323024" x2="78136.904752499" y2="-166276.6114323024" stroke="black" stroke-width="1.00" />
<line x1="78136.904752499" y1="-166276.6114323024" x2="78136.904752499" y2="-166176.6114322554" stroke="black" stroke-width="1.00" />
<line x1="78136.90475249899" y1="-167076.6114322554" x2="78136.90475249899" y2="-166876.6114323024" stroke="black" stroke-width="1.00" />
<line x1="78136.90475249899" y1="-166876.6114323024" x2="78036.90475249899" y2="-166876.6114323024" stroke="black" stroke-width="1.00" />
<line x1="78036.90475249899" y1="-166876.6114323024" x2="78036.90475249899" y2="-167076.6114322554" stroke="black" stroke-width="1.00" />
<line x1="76636.74210315295" y1="-166176.6114322554" x2="76636.74210315295" y2="-166276.6114323028" stroke="black" stroke-width="1.00" />
<line x1="76636.74210315295" y1="-166276.6114323028" x2="76736.74210315295" y2="-166276.6114323028" stroke="black" stroke-width="1.00" />
<line x1="76736.74210315295" y1="-166276.6114323028" x2="76736.74210315295" y2="-166076.6114322554" stroke="black" stroke-width="1.00" />
<line x1="76736.74210315297" y1="-167076.6114322554" x2="76736.74210315297" y2="-166876.6114323028" stroke="black" stroke-width="1.00" />
<line x1="76736.74210315297" y1="-166876.6114323028" x2="76636.74210315297" y2="-166876.6114323028" stroke="black" stroke-width="1.00" />
<line x1="76636.74210315297" y1="-166876.6114323028" x2="76636.74210315297" y2="-167076.6114322554" stroke="black" stroke-width="1.00" />
<line x1="78536.74210368891" y1="-167276.6114322554" x2="78036.90475249899" y2="-167276.6114322554" stroke="black" stroke-width="1.00" />
<line x1="78536.74210368891" y1="-167076.6114322554" x2="78136.90475249899" y2="-167076.6114322554" stroke="black" stroke-width="1.00" />
<line x1="76136.74210315336" y1="-166076.6114322556" x2="76736.74210315295" y2="-166076.6114322554" stroke="black" stroke-width="1.00" />
<line x1="76136.7421031534" y1="-166176.6114322556" x2="76636.74210315295" y2="-166176.6114322554" stroke="black" stroke-width="1.00" />
<line x1="76136.74210315336" y1="-166076.6114322556" x2="76136.7421031534" y2="-166176.6114322556" stroke="black" stroke-width="1.00" />
<line x1="78536.90475249858" y1="-166176.6114322556" x2="78136.904752499" y2="-166176.6114322554" stroke="black" stroke-width="1.00" />
<line x1="78536.90475249862" y1="-166076.6114322556" x2="78036.904752499" y2="-166076.6114322554" stroke="black" stroke-width="1.00" />
<line x1="78536.90475249858" y1="-166176.6114322556" x2="78536.90475249862" y2="-166076.6114322556" stroke="black" stroke-width="1.00" />
<line x1="76136.74210369165" y1="-167276.6114322554" x2="76136.74210369165" y2="-171876.9817960119" stroke="black" stroke-width="1.00" />
<line x1="75936.74210369165" y1="-167176.6114322554" x2="75936.74210369165" y2="-171976.9817960119" stroke="black" stroke-width="1.00" />
<line x1="68236.7421036918" y1="-164416.6114322557" x2="69236.7421036918" y2="-164416.6114322557" stroke="black" stroke-width="1.00" />
<line x1="68236.7421036918" y1="-164156.6114322557" x2="69236.7421036918" y2="-164156.6114322557" stroke="black" stroke-width="1.00" />
<line x1="68236.7421036918" y1="-163896.6114322557" x2="69236.7421036918" y2="-163896.6114322557" stroke="black" stroke-width="1.00" />
<line x1="68236.7421036918" y1="-163636.6114322557" x2="69236.7421036918" y2="-163636.6114322557" stroke="black" stroke-width="1.00" />
<line x1="68236.7421036918" y1="-163376.6114322557" x2="69115.82197611935" y2="-163376.6114322557" stroke="black" stroke-width="1.00" />
<line x1="68236.7421036918" y1="-163116.6114322557" x2="68627.44426921516" y2="-163116.6114322557" stroke="black" stroke-width="1.00" />
<line x1="68672.3501118727" y1="-163116.6114322557" x2="68733.06806170315" y2="-163116.6114322557" stroke="black" stroke-width="1.00" />
<line x1="68236.7421036918" y1="-164676.6114322557" x2="68236.7421036918" y2="-162908.6114322557" stroke="black" stroke-width="1.00" />
<line x1="69236.7421036918" y1="-164676.6114322557" x2="69236.7421036918" y2="-163440.9862649403" stroke="black" stroke-width="1.00" />
<line x1="68236.7421036918" y1="-164676.6114322557" x2="69236.7421036918" y2="-164676.6114322557" stroke="black" stroke-width="1.00" />
<line x1="69236.7421036918" y1="-163440.9862649403" x2="68798.42646780978" y2="-163207.6380516246" stroke="black" stroke-width="1.00" />
<line x1="68798.42646780978" y1="-163207.6380516246" x2="68706.30549866319" y2="-163306.3230405717" stroke="black" stroke-width="1.00" />
<line x1="68706.30549866319" y1="-163306.3230405717" x2="68743.877372044" y2="-163039.9875436361" stroke="black" stroke-width="1.00" />
<line x1="68743.877372044" y1="-163039.9875436361" x2="68657.44221375894" y2="-163132.5815829631" stroke="black" stroke-width="1.00" />
<line x1="68657.44221375894" y1="-163132.5815829631" x2="68236.7421036918" y2="-162908.6114322557" stroke="black" stroke-width="1.00" />
<path d="M 68736.7421036918 -164940.4835836773 L 68736.7421036918 -164196.6114322557 L 68736.7421036918 -163896.6114322557 " fill="none" stroke="black" stroke-width="1.00" />
<path d="M 85936.74210368877 -164940.4835836773 L 85936.74210368877 -164196.6114322557 L 85936.74210368877 -163896.6114322557 " fill="none" stroke="black" stroke-width="1.00" />
<line x1="85436.74210368877" y1="-164416.6114322557" x2="86436.74210368877" y2="-164416.6114322557" stroke="black" stroke-width="1.00" />
<line x1="85436.74210368877" y1="-164156.6114322557" x2="86436.74210368877" y2="-164156.6114322557" stroke="black" stroke-width="1.00" />
<line x1="85436.74210368877" y1="-163896.6114322557" x2="86436.74210368877" y2="-163896.6114322557" stroke="black" stroke-width="1.00" />
<line x1="85436.74210368877" y1="-163636.6114322557" x2="86436.74210368877" y2="-163636.6114322557" stroke="black" stroke-width="1.00" />
<line x1="85436.74210368877" y1="-163376.6114322557" x2="86315.82197611632" y2="-163376.6114322557" stroke="black" stroke-width="1.00" />
<line x1="85436.74210368877" y1="-163116.6114322557" x2="85827.44426921214" y2="-163116.6114322557" stroke="black" stroke-width="1.00" />
<line x1="85872.35011186967" y1="-163116.6114322557" x2="85933.06806170012" y2="-163116.6114322557" stroke="black" stroke-width="1.00" />
<line x1="85436.74210368877" y1="-164676.6114322557" x2="85436.74210368877" y2="-162908.6114322557" stroke="black" stroke-width="1.00" />
<line x1="86436.74210368877" y1="-164676.6114322557" x2="86436.74210368877" y2="-163440.9862649403" stroke="black" stroke-width="1.00" />
<line x1="85436.74210368877" y1="-164676.6114322557" x2="86436.74210368877" y2="-164676.6114322557" stroke="black" stroke-width="1.00" />
<line x1="86436.74210368877" y1="-163440.9862649403" x2="85998.42646780676" y2="-163207.6380516246" stroke="black" stroke-width="1.00" />
<line x1="85998.42646780676" y1="-163207.6380516246" x2="85906.30549866016" y2="-163306.3230405717" stroke="black" stroke-width="1.00" />
<line x1="85906.30549866016" y1="-163306.3230405717" x2="85943.87737204097" y2="-163039.9875436361" stroke="black" stroke-width="1.00" />
<line x1="85943.87737204097" y1="-163039.9875436361" x2="85857.44221375592" y2="-163132.5815829631" stroke="black" stroke-width="1.00" />
<line x1="85857.44221375592" y1="-163132.5815829631" x2="85436.74210368877" y2="-162908.6114322557" stroke="black" stroke-width="1.00" />
<line x1="78736.74210368891" y1="-167176.6114322554" x2="78736.74210368891" y2="-171976.9817960118" stroke="black" stroke-width="1.00" />
<line x1="78536.74210368891" y1="-167276.6114322554" x2="78536.74210368891" y2="-171876.9817960118" stroke="black" stroke-width="1.00" />
<line x1="80562.68368677101" y1="-166276.6114322558" x2="79162.68368677101" y2="-166276.6114322558" stroke="black" stroke-width="1.00" />
<line x1="89136.74210368877" y1="-166076.6114322557" x2="89136.74210368887" y2="-163676.6114322547" stroke="black" stroke-width="1.00" />
<line x1="89336.74210368877" y1="-166176.6114322551" x2="89336.74210368887" y2="-163476.6114322547" stroke="black" stroke-width="1.00" />
<line x1="86836.74210368872" y1="-165176.6114322571" x2="86836.74210368872" y2="-165976.6114322571" stroke="black" stroke-width="1.00" />
<line x1="84136.742103689" y1="-160876.6114322557" x2="81736.742103689" y2="-160876.6114322557" stroke="black" stroke-width="1.00" />
<line x1="84436.74210368896" y1="-170776.6114322558" x2="82036.74210368896" y2="-170776.6114322558" stroke="black" stroke-width="1.00" />
<line x1="80736.74210368891" y1="-162276.6114322552" x2="80736.74210368891" y2="-161476.6114322552" stroke="black" stroke-width="1.00" />
<line x1="86636.74210368891" y1="-164676.6114322487" x2="86736.74210368872" y2="-164676.6114322487" stroke="black" stroke-width="1.00" />
<line x1="86436.74210368891" y1="-164776.6114322487" x2="86736.74210368872" y2="-164776.6114322487" stroke="black" stroke-width="1.00" />
<line x1="86736.74210368872" y1="-164676.6114322487" x2="86837.09548613103" y2="-164676.6114322487" stroke="black" stroke-width="1.00" />
<line x1="86836.74210368872" y1="-164776.6114322487" x2="86837.09548613103" y2="-164776.6114322487" stroke="black" stroke-width="1.00" />
<line x1="86837.09548613103" y1="-164676.6114322487" x2="86837.09548613103" y2="-164776.6114322487" stroke="black" stroke-width="1.00" />
<line x1="86736.74210368872" y1="-166076.6114322557" x2="86736.74210368884" y2="-166176.6114322557" stroke="black" stroke-width="1.00" />
<line x1="86736.74210368884" y1="-166176.6114322557" x2="86737.09548613084" y2="-166176.6114322557" stroke="black" stroke-width="1.00" />
<line x1="85736.74210368891" y1="-166176.6114322557" x2="85836.74210368884" y2="-166176.6114322557" stroke="black" stroke-width="1.00" />
<line x1="85836.74210368884" y1="-166176.6114322557" x2="85836.74210368884" y2="-166076.6114322557" stroke="black" stroke-width="1.00" />
<line x1="85836.74210368884" y1="-166076.6114322557" x2="85636.74210368891" y2="-166076.6114322557" stroke="black" stroke-width="1.00" />
<line x1="86636.74210368891" y1="-163476.6114322547" x2="86636.74210368891" y2="-162576.6114322559" stroke="black" stroke-width="1.00" />
<line x1="86636.74210368891" y1="-162576.6114322559" x2="86436.74210368891" y2="-162576.6114322559" stroke="black" stroke-width="1.00" />
<line x1="86436.74210368891" y1="-162576.6114322559" x2="86436.74210368891" y2="-163576.6114322547" stroke="black" stroke-width="1.00" />
<line x1="86436.74210368891" y1="-161076.6114322557" x2="86436.74210368891" y2="-161376.6114322559" stroke="black" stroke-width="1.00" />
<line x1="86436.74210368891" y1="-161376.6114322559" x2="86636.74210368891" y2="-161376.6114322559" stroke="black" stroke-width="1.00" />
<line x1="86636.74210368891" y1="-161376.6114322559" x2="86636.74210368891" y2="-160876.6114322557" stroke="black" stroke-width="1.00" />
<line x1="78834.74210422605" y1="-164776.6114322554" x2="78834.74210422605" y2="-164826.6114322549" stroke="black" stroke-width="1.00" />
<line x1="78834.74210422605" y1="-164826.6114322549" x2="79034.74210422605" y2="-164826.6114322549" stroke="black" stroke-width="1.00" />
<line x1="79034.74210422605" y1="-164826.6114322549" x2="79034.74210422605" y2="-164776.6114322554" stroke="black" stroke-width="1.00" />
<line x1="79034.74210422607" y1="-166076.6114322558" x2="79034.74210422607" y2="-166026.6114322549" stroke="black" stroke-width="1.00" />
<line x1="79034.74210422607" y1="-166026.6114322549" x2="78834.74210422607" y2="-166026.6114322549" stroke="black" stroke-width="1.00" />
<line x1="78834.74210422607" y1="-166026.6114322549" x2="78834.74210422607" y2="-166076.6114322558" stroke="black" stroke-width="1.00" />
<line x1="78934.74210422659" y1="-166276.6114322558" x2="78736.74210368891" y2="-166276.6114322558" stroke="black" stroke-width="1.00" />
<line x1="78834.74210422607" y1="-166076.6114322558" x2="78536.74210368891" y2="-166076.6114322557" stroke="black" stroke-width="1.00" />
<line x1="78834.74210422605" y1="-164776.6114322554" x2="78536.74210368891" y2="-164776.6114322553" stroke="black" stroke-width="1.00" />
<line x1="78934.74210422662" y1="-164576.6114322554" x2="78736.74210368891" y2="-164576.6114322553" stroke="black" stroke-width="1.00" />
<line x1="86936.74210368891" y1="-166076.6114322557" x2="86936.74210368891" y2="-166076.6114322557" stroke="black" stroke-width="1.00" />
<line x1="86836.74210368891" y1="-166176.6114322557" x2="86836.74210368891" y2="-166176.6114322557" stroke="black" stroke-width="1.00" />
<line x1="86936.74210368891" y1="-166076.6114322557" x2="89136.74210368877" y2="-166076.6114322557" stroke="black" stroke-width="1.00" />
<line x1="86836.74210368891" y1="-166176.6114322557" x2="89136.74210368877" y2="-166176.6114322557" stroke="black" stroke-width="1.00" />
<line x1="85736.74210368891" y1="-166176.6114322557" x2="85736.74210368893" y2="-170576.6114322558" stroke="black" stroke-width="1.00" />
<line x1="85636.74210368891" y1="-166076.6114322557" x2="85636.74210368893" y2="-170576.6114322558" stroke="black" stroke-width="1.00" />
<line x1="85636.74210368893" y1="-170576.6114322558" x2="84436.74210368896" y2="-170576.6114322558" stroke="black" stroke-width="1.00" />
<line x1="84436.74210368896" y1="-170576.6114322558" x2="84436.74210368896" y2="-170776.6114322558" stroke="black" stroke-width="1.00" />
<line x1="84436.74210368896" y1="-170776.6114322558" x2="85636.74210368877" y2="-170776.6114322558" stroke="black" stroke-width="1.00" />
<line x1="80736.74210368891" y1="-170776.6114322558" x2="82036.74210368896" y2="-170776.6114322558" stroke="black" stroke-width="1.00" />
<line x1="82036.74210368896" y1="-170776.6114322558" x2="82036.74210368896" y2="-170576.6114322558" stroke="black" stroke-width="1.00" />
<line x1="82036.74210368896" y1="-170576.6114322558" x2="80936.74210368891" y2="-170576.6114322558" stroke="black" stroke-width="1.00" />
<line x1="86836.74210368891" y1="-166176.6114322557" x2="86737.09548613084" y2="-166176.6114322557" stroke="black" stroke-width="1.00" />
<line x1="86936.74210368891" y1="-166076.6114322557" x2="86836.74210368872" y2="-166076.6114322557" stroke="black" stroke-width="1.00" />
<line x1="86736.74210368872" y1="-164776.6114322487" x2="86736.74210368872" y2="-165176.6114322571" stroke="black" stroke-width="1.00" />
<line x1="86736.74210368872" y1="-165176.6114322571" x2="86836.74210368872" y2="-165176.6114322571" stroke="black" stroke-width="1.00" />
<line x1="86836.74210368872" y1="-165176.6114322571" x2="86836.74210368872" y2="-164776.6114322487" stroke="black" stroke-width="1.00" />
<line x1="86836.74210368872" y1="-166076.6114322557" x2="86836.74210368872" y2="-165976.6114322571" stroke="black" stroke-width="1.00" />
<line x1="86836.74210368872" y1="-165976.6114322571" x2="86736.74210368872" y2="-165976.6114322571" stroke="black" stroke-width="1.00" />
<line x1="86736.74210368872" y1="-165976.6114322571" x2="86736.74210368872" y2="-166076.6114322557" stroke="black" stroke-width="1.00" />
<line x1="86436.74210368891" y1="-164776.6114322487" x2="86436.74210368891" y2="-163576.6114322547" stroke="black" stroke-width="1.00" />
<line x1="86636.74210368891" y1="-164676.6114322487" x2="86636.74210368891" y2="-163676.6114322547" stroke="black" stroke-width="1.00" />
<line x1="78736.74210368891" y1="-166276.6114322558" x2="78736.74210368891" y2="-167176.6114322554" stroke="black" stroke-width="1.00" />
<line x1="78536.74210368891" y1="-166076.6114322557" x2="78536.74210368891" y2="-167076.6114322554" stroke="black" stroke-width="1.00" />
<line x1="80936.74210368891" y1="-166076.6114322557" x2="80562.68368677101" y2="-166076.6114322558" stroke="black" stroke-width="1.00" />
<line x1="80562.68368677101" y1="-166076.6114322558" x2="80562.68368677101" y2="-166276.6114322557" stroke="black" stroke-width="1.00" />
<line x1="80562.68368677101" y1="-166276.6114322557" x2="80736.74210368891" y2="-166276.6114322557" stroke="black" stroke-width="1.00" />
<line x1="78934.74210422662" y1="-166276.6114322558" x2="79162.68368677101" y2="-166276.6114322558" stroke="black" stroke-width="1.00" />
<line x1="79162.68368677101" y1="-166276.6114322558" x2="79162.68368677101" y2="-166076.6114322558" stroke="black" stroke-width="1.00" />
<line x1="79162.68368677101" y1="-166076.6114322558" x2="79034.74210422607" y2="-166076.6114322558" stroke="black" stroke-width="1.00" />
<line x1="80736.74210368891" y1="-170776.6114322558" x2="80736.74210368891" y2="-166276.6114322557" stroke="black" stroke-width="1.00" />
<line x1="80936.74210368891" y1="-170576.6114322558" x2="80936.74210368891" y2="-166076.6114322557" stroke="black" stroke-width="1.00" />
<line x1="89136.74210368891" y1="-170576.6114322558" x2="88486.74210369031" y2="-170576.6114322558" stroke="black" stroke-width="1.00" />
<line x1="88486.74210369031" y1="-170576.6114322558" x2="88486.74210369031" y2="-170776.6114322558" stroke="black" stroke-width="1.00" />
<line x1="88486.74210369031" y1="-170776.6114322558" x2="89336.74210368891" y2="-170776.6114322558" stroke="black" stroke-width="1.00" />
<line x1="85636.74210368877" y1="-170776.6114322558" x2="86386.74210369031" y2="-170776.6114322558" stroke="black" stroke-width="1.00" />
<line x1="86386.74210369031" y1="-170776.6114322558" x2="86386.74210369031" y2="-170576.6114322558" stroke="black" stroke-width="1.00" />
<line x1="86386.74210369031" y1="-170576.6114322558" x2="85736.74210368893" y2="-170576.6114322558" stroke="black" stroke-width="1.00" />
<line x1="78736.74210368891" y1="-164576.6114322553" x2="78736.74210368891" y2="-164126.6114319746" stroke="black" stroke-width="1.00" />
<line x1="78736.74210368891" y1="-164126.6114319746" x2="78536.74210368891" y2="-164126.6114319746" stroke="black" stroke-width="1.00" />
<line x1="78536.74210368891" y1="-164126.6114319746" x2="78536.74210368891" y2="-164776.6114322553" stroke="black" stroke-width="1.00" />
<line x1="78536.74210368891" y1="-162576.6114322557" x2="78536.74210368891" y2="-163026.6114319746" stroke="black" stroke-width="1.00" />
<line x1="78536.74210368891" y1="-163026.6114319746" x2="78736.74210368891" y2="-163026.6114319746" stroke="black" stroke-width="1.00" />
<line x1="78736.74210368891" y1="-163026.6114319746" x2="78736.74210368891" y2="-162576.6114322557" stroke="black" stroke-width="1.00" />
<line x1="78636.74210368839" y1="-162376.6114322557" x2="80736.74210368891" y2="-162376.6114322557" stroke="black" stroke-width="1.00" />
<line x1="78736.74210368891" y1="-162576.6114322557" x2="80736.74210368886" y2="-162576.6114322557" stroke="black" stroke-width="1.00" />
<line x1="80936.74210368746" y1="-164776.6114322558" x2="79034.74210422605" y2="-164776.6114322554" stroke="black" stroke-width="1.00" />
<line x1="80736.74210368757" y1="-164576.6114322557" x2="78934.74210422662" y2="-164576.6114322554" stroke="black" stroke-width="1.00" />
<line x1="80936.74210368891" y1="-162476.6114322557" x2="80936.74210368746" y2="-164776.6114322558" stroke="black" stroke-width="1.00" />
<line x1="80736.74210368886" y1="-162576.6114322557" x2="80736.74210368757" y2="-164576.6114322557" stroke="black" stroke-width="1.00" />
<line x1="80936.74210368891" y1="-162476.6114322557" x2="80936.74210368891" y2="-162276.6114322552" stroke="black" stroke-width="1.00" />
<line x1="80936.74210368891" y1="-162276.6114322552" x2="80736.74210368891" y2="-162276.6114322552" stroke="black" stroke-width="1.00" />
<line x1="80736.74210368891" y1="-162276.6114322552" x2="80736.74210368891" y2="-162376.6114322557" stroke="black" stroke-width="1.00" />
<line x1="80736.74210368893" y1="-160976.6114322557" x2="80736.74210368893" y2="-161476.6114322552" stroke="black" stroke-width="1.00" />
<line x1="80736.74210368893" y1="-161476.6114322552" x2="80936.74210368893" y2="-161476.6114322552" stroke="black" stroke-width="1.00" />
<line x1="80936.74210368893" y1="-161476.6114322552" x2="80936.74210368893" y2="-161076.6114322557" stroke="black" stroke-width="1.00" />
<line x1="78236.74210368891" y1="-162376.6114322557" x2="78636.74210368838" y2="-162376.6114322557" stroke="black" stroke-width="1.00" />
<line x1="78136.74210368893" y1="-162576.6114322557" x2="78536.74210368891" y2="-162576.6114322557" stroke="black" stroke-width="1.00" />
<line x1="78236.74210368891" y1="-158976.6114322557" x2="78236.74210368891" y2="-162376.6114322557" stroke="black" stroke-width="1.00" />
<line x1="78036.74210368891" y1="-158776.6114322557" x2="78036.74210368891" y2="-162376.611432256" stroke="black" stroke-width="1.00" />
<line x1="80936.74210368893" y1="-158776.6114322557" x2="80736.74210368893" y2="-158776.6114322557" stroke="black" stroke-width="1.00" />
<line x1="80736.74210368893" y1="-158776.6114322557" x2="80736.74210368893" y2="-158976.6114322557" stroke="black" stroke-width="1.00" />
<line x1="78236.74210368891" y1="-158976.6114322557" x2="79236.74210368893" y2="-158976.6114322557" stroke="black" stroke-width="1.00" />
<line x1="79236.74210368893" y1="-158976.6114322557" x2="79236.74210368893" y2="-158776.6114322557" stroke="black" stroke-width="1.00" />
<line x1="79236.74210368893" y1="-158776.6114322557" x2="78036.74210368891" y2="-158776.6114322557" stroke="black" stroke-width="1.00" />
<line x1="80736.74210368893" y1="-160976.6114322557" x2="80736.74210368893" y2="-158976.6114322557" stroke="black" stroke-width="1.00" />
<line x1="80936.74210368893" y1="-160876.6114322557" x2="80936.74210368893" y2="-158776.6114322557" stroke="black" stroke-width="1.00" />
<line x1="86636.74210368891" y1="-160876.6114322557" x2="84136.742103689" y2="-160876.6114322557" stroke="black" stroke-width="1.00" />
<line x1="84136.742103689" y1="-160876.6114322557" x2="84136.742103689" y2="-161076.6114322557" stroke="black" stroke-width="1.00" />
<line x1="84136.742103689" y1="-161076.6114322557" x2="86436.74210368891" y2="-161076.6114322557" stroke="black" stroke-width="1.00" />
<line x1="80936.74210368893" y1="-161076.6114322557" x2="81736.742103689" y2="-161076.6114322557" stroke="black" stroke-width="1.00" />
<line x1="81736.742103689" y1="-161076.6114322557" x2="81736.742103689" y2="-160876.6114322557" stroke="black" stroke-width="1.00" />
<line x1="81736.742103689" y1="-160876.6114322557" x2="80936.74210368893" y2="-160876.6114322557" stroke="black" stroke-width="1.00" />
<line x1="89336.74210368887" y1="-163476.6114322547" x2="88699.47388659182" y2="-163476.6114322547" stroke="black" stroke-width="1.00" />
<line x1="88699.47388659182" y1="-163476.6114322547" x2="88699.47388659182" y2="-163676.6114322547" stroke="black" stroke-width="1.00" />
<line x1="88699.47388659182" y1="-163676.6114322547" x2="89136.74210368887" y2="-163676.6114322547" stroke="black" stroke-width="1.00" />
<line x1="86636.74210368891" y1="-163676.6114322547" x2="87199.47388659182" y2="-163676.6114322547" stroke="black" stroke-width="1.00" />
<line x1="87199.47388659182" y1="-163676.6114322547" x2="87199.47388659182" y2="-163476.6114322547" stroke="black" stroke-width="1.00" />
<line x1="87199.47388659182" y1="-163476.6114322547" x2="86636.74210368891" y2="-163476.6114322547" stroke="black" stroke-width="1.00" />
<line x1="89136.74210368891" y1="-170576.6114322558" x2="89136.74210368877" y2="-166176.6114322557" stroke="black" stroke-width="1.00" />
<line x1="89336.74210368891" y1="-170776.6114322558" x2="89336.74210368877" y2="-166176.6114322551" stroke="black" stroke-width="1.00" />
<line x1="76536.74210369162" y1="-162576.6114322557" x2="76136.74210369165" y2="-162576.6114322557" stroke="black" stroke-width="1.00" />
<line x1="76436.74210369165" y1="-162376.6114322557" x2="76036.74210369219" y2="-162376.6114322557" stroke="black" stroke-width="1.00" />
<line x1="76136.57945433243" y1="-168476.9817960106" x2="76136.57945433243" y2="-169801.8109581743" stroke="black" stroke-width="1.00" />
<line x1="76136.57945433243" y1="-169908.152633847" x2="76136.57945433243" y2="-170556.9817960106" stroke="black" stroke-width="1.00" />
<line x1="77226.57945433243" y1="-168476.9817960106" x2="76136.57945433243" y2="-168476.9817960106" stroke="black" stroke-width="1.00" />
<line x1="77226.57945433243" y1="-168736.9817960106" x2="76136.57945433243" y2="-168736.9817960106" stroke="black" stroke-width="1.00" />
<line x1="77226.57945433243" y1="-168996.9817960106" x2="76136.57945433243" y2="-168996.9817960106" stroke="black" stroke-width="1.00" />
<line x1="77226.57945433243" y1="-169256.9817960106" x2="76136.57945433243" y2="-169256.9817960106" stroke="black" stroke-width="1.00" />
<line x1="77226.57945433243" y1="-169516.9817960106" x2="77217.94114546663" y2="-169516.9817960106" stroke="black" stroke-width="1.00" />
<line x1="76923.96776319823" y1="-169516.9817960106" x2="76136.57945433243" y2="-169516.9817960106" stroke="black" stroke-width="1.00" />
<line x1="77226.57945433243" y1="-169776.9817960106" x2="76499.19114546664" y2="-169776.9817960106" stroke="black" stroke-width="1.00" />
<line x1="76205.21776319823" y1="-169776.9817960106" x2="76136.57945433243" y2="-169776.9817960106" stroke="black" stroke-width="1.00" />
<line x1="77226.57945433243" y1="-170036.9817960106" x2="76136.57945433243" y2="-170036.9817960106" stroke="black" stroke-width="1.00" />
<line x1="77226.57945433243" y1="-170296.9817960106" x2="76136.57945433243" y2="-170296.9817960106" stroke="black" stroke-width="1.00" />
<line x1="77226.57945433243" y1="-170556.9817960106" x2="76136.57945433243" y2="-170556.9817960106" stroke="black" stroke-width="1.00" />
<line x1="77286.57945433243" y1="-168476.9817960106" x2="77286.57945433243" y2="-169385.8109581743" stroke="black" stroke-width="1.00" />
<line x1="77286.57945433243" y1="-169492.152633847" x2="77286.57945433243" y2="-170556.9817960106" stroke="black" stroke-width="1.00" />
<line x1="77286.57945433243" y1="-169492.152633847" x2="76800.46930959128" y2="-169667.9976949012" stroke="black" stroke-width="1.00" />
<line x1="77286.57945433243" y1="-169385.8109581743" x2="76791.64963119046" y2="-169564.8464420239" stroke="black" stroke-width="1.00" />
<line x1="76791.64963119046" y1="-169564.8464420239" x2="76806.85048372952" y2="-169742.6292264916" stroke="black" stroke-width="1.00" />
<line x1="76806.85048372952" y1="-169742.6292264916" x2="76634.36480794627" y2="-169536.243824278" stroke="black" stroke-width="1.00" />
<line x1="76634.36480794627" y1="-169536.243824278" x2="76650.275506595" y2="-169722.3286705938" stroke="black" stroke-width="1.00" />
<line x1="76650.275506595" y1="-169722.3286705938" x2="76136.57945433243" y2="-169908.152633847" stroke="black" stroke-width="1.00" />
<line x1="76641.45582819419" y1="-169619.1774177164" x2="76136.57945433243" y2="-169801.8109581743" stroke="black" stroke-width="1.00" />
<line x1="78536.57945433243" y1="-170556.9817960106" x2="78536.57945433243" y2="-168476.9817960106" stroke="black" stroke-width="1.00" />
<line x1="77446.57945433243" y1="-170556.9817960106" x2="78536.57945433243" y2="-170556.9817960106" stroke="black" stroke-width="1.00" />
<line x1="77446.57945433243" y1="-170296.9817960106" x2="78536.57945433243" y2="-170296.9817960106" stroke="black" stroke-width="1.00" />
<line x1="77446.57945433243" y1="-170036.9817960106" x2="78536.57945433243" y2="-170036.9817960106" stroke="black" stroke-width="1.00" />
<line x1="77446.57945433243" y1="-169776.9817960106" x2="78536.57945433243" y2="-169776.9817960106" stroke="black" stroke-width="1.00" />
<line x1="77446.57945433243" y1="-169516.9817960106" x2="78536.57945433243" y2="-169516.9817960106" stroke="black" stroke-width="1.00" />
<line x1="77446.57945433243" y1="-169256.9817960106" x2="78536.57945433243" y2="-169256.9817960106" stroke="black" stroke-width="1.00" />
<line x1="77446.57945433243" y1="-168996.9817960106" x2="78536.57945433243" y2="-168996.9817960106" stroke="black" stroke-width="1.00" />
<line x1="77446.57945433243" y1="-168736.9817960106" x2="78536.57945433243" y2="-168736.9817960106" stroke="black" stroke-width="1.00" />
<line x1="77446.57945433243" y1="-168476.9817960106" x2="78536.57945433243" y2="-168476.9817960106" stroke="black" stroke-width="1.00" />
<line x1="77386.57945433243" y1="-170556.9817960106" x2="77386.57945433243" y2="-168476.9817960106" stroke="black" stroke-width="1.00" />
<line x1="77386.57945433243" y1="-168386.9817960106" x2="77286.57945433243" y2="-168386.9817960106" stroke="black" stroke-width="1.00" />
<line x1="77286.57945433243" y1="-168386.9817960106" x2="77286.57945433243" y2="-169385.8109581743" stroke="black" stroke-width="1.00" />
<line x1="77286.57945433243" y1="-169492.152633847" x2="77286.57945433243" y2="-170646.9817960106" stroke="black" stroke-width="1.00" />
<line x1="77286.57945433243" y1="-170646.9817960106" x2="77386.57945433243" y2="-170646.9817960106" stroke="black" stroke-width="1.00" />
<line x1="77386.57945433243" y1="-170646.9817960106" x2="77386.57945433243" y2="-168386.9817960106" stroke="black" stroke-width="1.00" />
<line x1="77446.57945433243" y1="-168326.9817960106" x2="77226.57945433243" y2="-168326.9817960106" stroke="black" stroke-width="1.00" />
<line x1="77226.57945433243" y1="-168326.9817960106" x2="77226.57945433243" y2="-169407.5153060003" stroke="black" stroke-width="1.00" />
<line x1="77226.57945433243" y1="-169513.8569816731" x2="77226.57945433243" y2="-170706.9817960106" stroke="black" stroke-width="1.00" />
<line x1="77226.57945433243" y1="-170706.9817960106" x2="77446.57945433243" y2="-170706.9817960106" stroke="black" stroke-width="1.00" />
<line x1="77446.57945433243" y1="-170706.9817960106" x2="77446.57945433243" y2="-168326.9817960106" stroke="black" stroke-width="1.00" />
<line x1="76136.57945433243" y1="-170556.9817960106" x2="76136.57945433243" y2="-171876.9817960106" stroke="black" stroke-width="1.00" />
<line x1="76136.57945433243" y1="-171876.9817960106" x2="78536.57945433243" y2="-171876.9817960106" stroke="black" stroke-width="1.00" />
<line x1="78536.57945433243" y1="-171876.9817960106" x2="78536.57945433243" y2="-170556.9817960106" stroke="black" stroke-width="1.00" />
<line x1="78536.57945433243" y1="-170556.9817960106" x2="77446.57945433243" y2="-170556.9817960106" stroke="black" stroke-width="1.00" />
<line x1="77386.57945433243" y1="-170556.9817960106" x2="77286.57945433243" y2="-170556.9817960106" stroke="black" stroke-width="1.00" />
<line x1="77226.57945433243" y1="-170556.9817960106" x2="76136.57945433243" y2="-170556.9817960106" stroke="black" stroke-width="1.00" />
<line x1="77286.57945433243" y1="-168476.9817960106" x2="77386.57945433243" y2="-168476.9817960106" stroke="black" stroke-width="1.00" />
<path d="M 76647.1034235216 -168206.9817960106 L 76647.1034235216 -169076.9817960106 L 76647.1034235216 -169376.9817960106 " fill="none" stroke="black" stroke-width="1.00" />
<path d="M 77916.57945433243 -168206.9817960106 L 77916.57945433243 -171276.9817960106 L 76696.57945433243 -171276.9817960106 L 76696.57945433243 -169936.9817960106 L 76696.57945433243 -169636.9817960106 " fill="none" stroke="black" stroke-width="1.00" />
<line x1="78536.74210368891" y1="-171876.9817960118" x2="78095.91188550025" y2="-171876.9817960118" stroke="black" stroke-width="1.00" />
<line x1="78095.91188550025" y1="-171876.9817960118" x2="78095.91188550025" y2="-172076.9817960118" stroke="black" stroke-width="1.00" />
<line x1="78095.91188550025" y1="-172076.9817960118" x2="78536.74210368891" y2="-172076.9817960118" stroke="black" stroke-width="1.00" />
<line x1="76136.74210369165" y1="-172076.9817960119" x2="76595.91188550025" y2="-172076.9817960119" stroke="black" stroke-width="1.00" />
<line x1="76595.91188550025" y1="-172076.9817960119" x2="76595.91188550025" y2="-171876.9817960119" stroke="black" stroke-width="1.00" />
<line x1="76595.91188550025" y1="-171876.9817960119" x2="76136.74210369165" y2="-171876.9817960119" stroke="black" stroke-width="1.00" />
<line x1="78736.74210368891" y1="-171976.9817960118" x2="78736.74210368891" y2="-172876.6114322557" stroke="black" stroke-width="1.00" />
<line x1="78536.74210368891" y1="-172076.9817960118" x2="78536.74210368891" y2="-172876.6114322557" stroke="black" stroke-width="1.00" />
<line x1="78736.74210368891" y1="-172876.6114322557" x2="78536.74210368891" y2="-172876.6114322557" stroke="black" stroke-width="1.00" />
<line x1="76136.74210369165" y1="-172076.9817960119" x2="76136.74210369165" y2="-172876.6114322557" stroke="black" stroke-width="1.00" />
<line x1="75936.74210369165" y1="-171976.9817960119" x2="75936.74210369165" y2="-172876.6114322557" stroke="black" stroke-width="1.00" />
<line x1="76136.74210369165" y1="-172876.6114322557" x2="75936.74210369165" y2="-172876.6114322557" stroke="black" stroke-width="1.00" />
<line x1="68436.74210369165" y1="-159176.6114322558" x2="68436.74210369165" y2="-158776.6114322558" stroke="black" stroke-width="1.00" />
<line x1="68436.74210369165" y1="-158776.6114322558" x2="68036.74210369165" y2="-158776.6114322558" stroke="black" stroke-width="1.00" />
<line x1="68036.74210369165" y1="-158776.6114322558" x2="68036.74210369165" y2="-159176.6114322558" stroke="black" stroke-width="1.00" />
<line x1="68036.74210369165" y1="-159176.6114322558" x2="68436.74210369165" y2="-159176.6114322558" stroke="black" stroke-width="1.00" />
<path d="M 66186.74210369162 -170776.6114322558 L 66186.74210369162 -171256.6114322558 L 68286.74210369162 -171256.6114322558 L 68286.74210369162 -170776.6114322558 " fill="none" stroke="black" stroke-width="1.00" />
<path d="M 66146.74210369162 -170776.6114322558 L 66146.74210369162 -171296.6114322558 L 68326.74210369162 -171296.6114322558 L 68326.74210369162 -170776.6114322558 " fill="none" stroke="black" stroke-width="1.00" />
<path d="M 66066.74210369162 -170776.6114322558 L 66066.74210369162 -171376.6114322558 L 68406.74210369162 -171376.6114322558 L 68406.74210369162 -170776.6114322558 " fill="none" stroke="black" stroke-width="1.00" />
<line x1="66186.74210369162" y1="-170576.6114322558" x2="68286.74210369162" y2="-170576.6114322558" stroke="black" stroke-width="1.00" />
<path d="M 86386.74210369031 -170776.6114322558 L 86386.74210369031 -171256.6114322558 L 88486.74210369031 -171256.6114322557 L 88486.74210369031 -170776.6114322558 " fill="none" stroke="black" stroke-width="1.00" />
<path d="M 86346.74210369031 -170776.6114322558 L 86346.74210369031 -171296.6114322558 L 88526.74210369031 -171296.6114322557 L 88526.74210369031 -170776.6114322558 " fill="none" stroke="black" stroke-width="1.00" />
<path d="M 86266.74210369031 -170776.6114322558 L 86266.74210369031 -171376.6114322558 L 88606.74210369031 -171376.6114322557 L 88606.74210369031 -170776.6114322558 " fill="none" stroke="black" stroke-width="1.00" />
<line x1="88486.74210369031" y1="-170576.6114322558" x2="86386.74210369031" y2="-170576.6114322558" stroke="black" stroke-width="1.00" />
<line x1="68136.74210369165" y1="-157797.160388682" x2="68136.74210369165" y2="-156872.160388682" stroke="black" stroke-width="1.00" />
<line x1="73836.7421036903" y1="-157797.160388682" x2="73836.7421036903" y2="-156872.160388682" stroke="black" stroke-width="1.00" />
<line x1="68136.74210369165" y1="-157122.160388682" x2="73836.7421036903" y2="-157122.160388682" stroke="black" stroke-width="1.00" />
<line x1="65436.74210369165" y1="-157797.160388682" x2="65436.74210369165" y2="-156872.160388682" stroke="black" stroke-width="1.00" />
<line x1="68136.74210369165" y1="-157797.160388682" x2="68136.74210369165" y2="-156872.160388682" stroke="black" stroke-width="1.00" />
<line x1="65436.74210369165" y1="-157122.160388682" x2="68136.74210369165" y2="-157122.160388682" stroke="black" stroke-width="1.00" />
<line x1="76536.74210369028" y1="-157797.160388682" x2="76536.74210369028" y2="-156872.160388682" stroke="black" stroke-width="1.00" />
<line x1="78136.74210369028" y1="-157797.160388682" x2="78136.74210369028" y2="-156872.160388682" stroke="black" stroke-width="1.00" />
<line x1="76536.74210369028" y1="-157122.160388682" x2="78136.74210369028" y2="-157122.160388682" stroke="black" stroke-width="1.00" />
<line x1="73836.7421036903" y1="-157797.160388682" x2="73836.7421036903" y2="-156872.160388682" stroke="black" stroke-width="1.00" />
<line x1="76036.74210369028" y1="-157797.160388682" x2="76036.74210369028" y2="-156872.160388682" stroke="black" stroke-width="1.00" />
<line x1="73836.7421036903" y1="-157122.160388682" x2="76036.74210369028" y2="-157122.160388682" stroke="black" stroke-width="1.00" />
<line x1="76036.74210369028" y1="-157797.160388682" x2="76036.74210369028" y2="-156872.160388682" stroke="black" stroke-width="1.00" />
<line x1="76536.74210369028" y1="-157797.160388682" x2="76536.74210369028" y2="-156872.160388682" stroke="black" stroke-width="1.00" />
<line x1="76036.74210369028" y1="-157122.160388682" x2="75936.74210369028" y2="-157122.160388682" stroke="black" stroke-width="1.00" />
<line x1="76536.74210369028" y1="-157122.160388682" x2="76636.74210369028" y2="-157122.160388682" stroke="black" stroke-width="1.00" />
<line x1="76036.74210369028" y1="-157122.160388682" x2="76536.74210369028" y2="-157122.160388682" stroke="black" stroke-width="1.00" />
<line x1="80836.74210369028" y1="-157797.160388682" x2="80836.74210369028" y2="-156872.160388682" stroke="black" stroke-width="1.00" />
<line x1="86536.74210368888" y1="-157797.160388682" x2="86536.74210368888" y2="-156872.160388682" stroke="black" stroke-width="1.00" />
<line x1="80836.74210369028" y1="-157122.160388682" x2="86536.74210368888" y2="-157122.160388682" stroke="black" stroke-width="1.00" />
<line x1="78136.74210369028" y1="-157797.160388682" x2="78136.74210369028" y2="-156872.160388682" stroke="black" stroke-width="1.00" />
<line x1="78636.74210369028" y1="-157797.160388682" x2="78636.74210369028" y2="-156872.160388682" stroke="black" stroke-width="1.00" />
<line x1="78136.74210369028" y1="-157122.160388682" x2="78036.74210369028" y2="-157122.160388682" stroke="black" stroke-width="1.00" />
<line x1="78636.74210369028" y1="-157122.160388682" x2="78736.74210369028" y2="-157122.160388682" stroke="black" stroke-width="1.00" />
<line x1="78136.74210369028" y1="-157122.160388682" x2="78636.74210369028" y2="-157122.160388682" stroke="black" stroke-width="1.00" />
<line x1="78636.74210369028" y1="-157797.160388682" x2="78636.74210369028" y2="-156872.160388682" stroke="black" stroke-width="1.00" />
<line x1="80836.74210369028" y1="-157797.160388682" x2="80836.74210369028" y2="-156872.160388682" stroke="black" stroke-width="1.00" />
<line x1="78636.74210369028" y1="-157122.160388682" x2="80836.74210369028" y2="-157122.160388682" stroke="black" stroke-width="1.00" />
<line x1="65436.74210369165" y1="-157797.160388682" x2="65436.74210369165" y2="-156072.160388682" stroke="black" stroke-width="1.00" />
<line x1="89236.74210368888" y1="-157797.160388682" x2="89236.74210368888" y2="-156072.160388682" stroke="black" stroke-width="1.00" />
<line x1="65436.74210369165" y1="-156322.160388682" x2="89236.74210368888" y2="-156322.160388682" stroke="black" stroke-width="1.00" />
<line x1="86536.74210368888" y1="-157797.160388682" x2="86536.74210368888" y2="-156872.160388682" stroke="black" stroke-width="1.00" />
<line x1="89236.74210368888" y1="-157797.160388682" x2="89236.74210368888" y2="-156872.160388682" stroke="black" stroke-width="1.00" />
<line x1="86536.74210368888" y1="-157122.160388682" x2="89236.74210368888" y2="-157122.160388682" stroke="black" stroke-width="1.00" />
<line x1="64843.36387504611" y1="-160976.6114322565" x2="63618.36387504611" y2="-160976.6114322565" stroke="black" stroke-width="1.00" />
<line x1="64843.36387504611" y1="-158876.6114322565" x2="63618.36387504611" y2="-158876.6114322565" stroke="black" stroke-width="1.00" />
<line x1="63868.36387504611" y1="-160976.6114322565" x2="63868.36387504611" y2="-158876.6114322565" stroke="black" stroke-width="1.00" />
<line x1="64843.36387504611" y1="-172776.6114322557" x2="62818.36387504611" y2="-172776.6114322557" stroke="black" stroke-width="1.00" />
<line x1="64843.36387504611" y1="-158876.6114322565" x2="62818.36387504611" y2="-158876.6114322565" stroke="black" stroke-width="1.00" />
<line x1="63068.36387504611" y1="-172776.6114322557" x2="63068.36387504611" y2="-158876.6114322565" stroke="black" stroke-width="1.00" />
<line x1="64843.36387504611" y1="-170676.6114322557" x2="63618.36387504611" y2="-170676.6114322557" stroke="black" stroke-width="1.00" />
<line x1="64843.36387504611" y1="-166176.6114322557" x2="63618.36387504611" y2="-166176.6114322557" stroke="black" stroke-width="1.00" />
<line x1="63868.36387504611" y1="-170676.6114322557" x2="63868.36387504611" y2="-166176.6114322557" stroke="black" stroke-width="1.00" />
<line x1="64843.36387504611" y1="-172776.6114322557" x2="63618.36387504611" y2="-172776.6114322557" stroke="black" stroke-width="1.00" />
<line x1="64843.36387504611" y1="-170676.6114322557" x2="63618.36387504611" y2="-170676.6114322557" stroke="black" stroke-width="1.00" />
<line x1="63868.36387504611" y1="-172776.6114322557" x2="63868.36387504611" y2="-170676.6114322557" stroke="black" stroke-width="1.00" />
<line x1="64843.36387504611" y1="-166176.6114322557" x2="63618.36387504611" y2="-166176.6114322557" stroke="black" stroke-width="1.00" />
<line x1="64843.36387504611" y1="-164676.6114322557" x2="63618.36387504611" y2="-164676.6114322557" stroke="black" stroke-width="1.00" />
<line x1="63868.36387504611" y1="-166176.6114322557" x2="63868.36387504611" y2="-164676.6114322557" stroke="black" stroke-width="1.00" />
<line x1="64843.36387504611" y1="-164676.6114322557" x2="63618.36387504611" y2="-164676.6114322557" stroke="black" stroke-width="1.00" />
<line x1="64843.36387504611" y1="-163576.6114322565" x2="63618.36387504611" y2="-163576.6114322565" stroke="black" stroke-width="1.00" />
<line x1="63868.36387504611" y1="-164676.6114322557" x2="63868.36387504611" y2="-163576.6114322565" stroke="black" stroke-width="1.00" />
<line x1="64843.36387504611" y1="-163576.6114322565" x2="63618.36387504611" y2="-163576.6114322565" stroke="black" stroke-width="1.00" />
<line x1="64843.36387504611" y1="-162476.6114322565" x2="63618.36387504611" y2="-162476.6114322565" stroke="black" stroke-width="1.00" />
<line x1="63868.36387504611" y1="-163576.6114322565" x2="63868.36387504611" y2="-162476.6114322565" stroke="black" stroke-width="1.00" />
<line x1="64843.36387504611" y1="-162476.6114322565" x2="63618.36387504611" y2="-162476.6114322565" stroke="black" stroke-width="1.00" />
<line x1="64843.36387504611" y1="-160976.6114322565" x2="63618.36387504611" y2="-160976.6114322565" stroke="black" stroke-width="1.00" />
<line x1="63868.36387504611" y1="-162476.6114322565" x2="63868.36387504611" y2="-160976.6114322565" stroke="black" stroke-width="1.00" />
<line x1="76036.74210369165" y1="-173661.2776347157" x2="76036.74210369165" y2="-174886.2776347157" stroke="black" stroke-width="1.00" />
<line x1="78636.74210369028" y1="-173661.2776347157" x2="78636.74210369028" y2="-174886.2776347157" stroke="black" stroke-width="1.00" />
<line x1="76036.74210369165" y1="-174636.2776347157" x2="78636.74210369028" y2="-174636.2776347157" stroke="black" stroke-width="1.00" />
<line x1="65436.74210369165" y1="-173661.2776347157" x2="65436.74210369165" y2="-175686.2776347157" stroke="black" stroke-width="1.00" />
<line x1="89236.74210368888" y1="-173661.2776347157" x2="89236.74210368888" y2="-175686.2776347157" stroke="black" stroke-width="1.00" />
<line x1="65436.74210369165" y1="-175436.2776347157" x2="89236.74210368888" y2="-175436.2776347157" stroke="black" stroke-width="1.00" />
<line x1="69036.74210369165" y1="-173661.2776347157" x2="69036.74210369165" y2="-174886.2776347157" stroke="black" stroke-width="1.00" />
<line x1="73836.74210369028" y1="-173661.2776347157" x2="73836.74210369028" y2="-174886.2776347157" stroke="black" stroke-width="1.00" />
<line x1="69036.74210369165" y1="-174636.2776347157" x2="73836.74210369028" y2="-174636.2776347157" stroke="black" stroke-width="1.00" />
<line x1="65436.74210369165" y1="-173661.2776347157" x2="65436.74210369165" y2="-174886.2776347157" stroke="black" stroke-width="1.00" />
<line x1="69036.74210369165" y1="-173661.2776347157" x2="69036.74210369165" y2="-174886.2776347157" stroke="black" stroke-width="1.00" />
<line x1="65436.74210369165" y1="-174636.2776347157" x2="69036.74210369165" y2="-174636.2776347157" stroke="black" stroke-width="1.00" />
<line x1="73836.74210369028" y1="-173661.2776347157" x2="73836.74210369028" y2="-174886.2776347157" stroke="black" stroke-width="1.00" />
<line x1="76036.74210369165" y1="-173661.2776347157" x2="76036.74210369165" y2="-174886.2776347157" stroke="black" stroke-width="1.00" />
<line x1="73836.74210369028" y1="-174636.2776347157" x2="76036.74210369165" y2="-174636.2776347157" stroke="black" stroke-width="1.00" />
<line x1="80836.74210369028" y1="-173661.2776347157" x2="80836.74210369028" y2="-174886.2776347157" stroke="black" stroke-width="1.00" />
<line x1="85636.74210368888" y1="-173661.2776347157" x2="85636.74210368888" y2="-174886.2776347157" stroke="black" stroke-width="1.00" />
<line x1="80836.74210369028" y1="-174636.2776347157" x2="85636.74210368888" y2="-174636.2776347157" stroke="black" stroke-width="1.00" />
<line x1="78636.74210369028" y1="-173661.2776347157" x2="78636.74210369028" y2="-174886.2776347157" stroke="black" stroke-width="1.00" />
<line x1="80836.74210369028" y1="-173661.2776347157" x2="80836.74210369028" y2="-174886.2776347157" stroke="black" stroke-width="1.00" />
<line x1="78636.74210369028" y1="-174636.2776347157" x2="80836.74210369028" y2="-174636.2776347157" stroke="black" stroke-width="1.00" />
<line x1="85636.74210368888" y1="-173661.2776347157" x2="85636.74210368888" y2="-174886.2776347157" stroke="black" stroke-width="1.00" />
<line x1="89236.74210368888" y1="-173661.2776347157" x2="89236.74210368888" y2="-174886.2776347157" stroke="black" stroke-width="1.00" />
<line x1="85636.74210368888" y1="-174636.2776347157" x2="89236.74210368888" y2="-174636.2776347157" stroke="black" stroke-width="1.00" />
<line x1="90148.68610004938" y1="-160976.6114322565" x2="91373.68610004938" y2="-160976.6114322565" stroke="black" stroke-width="1.00" />
<line x1="90148.68610004938" y1="-158876.6114322565" x2="91373.68610004938" y2="-158876.6114322565" stroke="black" stroke-width="1.00" />
<line x1="91123.68610004938" y1="-160976.6114322565" x2="91123.68610004938" y2="-158876.6114322565" stroke="black" stroke-width="1.00" />
<line x1="90148.68610004938" y1="-172776.6114322557" x2="92173.68610004938" y2="-172776.6114322557" stroke="black" stroke-width="1.00" />
<line x1="90148.68610004938" y1="-158876.6114322565" x2="92173.6861000494" y2="-158876.6114322565" stroke="black" stroke-width="1.00" />
<line x1="91923.68610004938" y1="-172776.6114322557" x2="91923.6861000494" y2="-158876.6114322565" stroke="black" stroke-width="1.00" />
<line x1="90148.68610004938" y1="-170676.6114322557" x2="91373.68610004938" y2="-170676.6114322557" stroke="black" stroke-width="1.00" />
<line x1="90148.68610004938" y1="-166176.6114322557" x2="91373.68610004938" y2="-166176.6114322557" stroke="black" stroke-width="1.00" />
<line x1="91123.68610004938" y1="-170676.6114322557" x2="91123.68610004938" y2="-166176.6114322557" stroke="black" stroke-width="1.00" />
<line x1="90148.68610004938" y1="-172776.6114322557" x2="91373.68610004938" y2="-172776.6114322557" stroke="black" stroke-width="1.00" />
<line x1="90148.68610004938" y1="-170676.6114322557" x2="91373.68610004938" y2="-170676.6114322557" stroke="black" stroke-width="1.00" />
<line x1="91123.68610004938" y1="-172776.6114322557" x2="91123.68610004938" y2="-170676.6114322557" stroke="black" stroke-width="1.00" />
<line x1="90148.68610004938" y1="-166176.6114322557" x2="91373.68610004938" y2="-166176.6114322557" stroke="black" stroke-width="1.00" />
<line x1="90148.68610004938" y1="-164676.6114322557" x2="91373.68610004938" y2="-164676.6114322557" stroke="black" stroke-width="1.00" />
<line x1="91123.68610004938" y1="-166176.6114322557" x2="91123.68610004938" y2="-164676.6114322557" stroke="black" stroke-width="1.00" />
<line x1="90148.68610004938" y1="-164676.6114322557" x2="91373.68610004938" y2="-164676.6114322557" stroke="black" stroke-width="1.00" />
<line x1="90148.68610004938" y1="-163576.6114322565" x2="91373.6861000494" y2="-163576.6114322565" stroke="black" stroke-width="1.00" />
<line x1="91123.68610004938" y1="-164676.6114322557" x2="91123.6861000494" y2="-163576.6114322565" stroke="black" stroke-width="1.00" />
<line x1="90148.68610004938" y1="-163576.6114322565" x2="91373.68610004938" y2="-163576.6114322565" stroke="black" stroke-width="1.00" />
<line x1="90148.68610004938" y1="-162476.6114322565" x2="91373.68610004938" y2="-162476.6114322565" stroke="black" stroke-width="1.00" />
<line x1="91123.68610004938" y1="-163576.6114322565" x2="91123.68610004938" y2="-162476.6114322565" stroke="black" stroke-width="1.00" />
<line x1="90148.68610004938" y1="-162476.6114322565" x2="91373.68610004938" y2="-162476.6114322565" stroke="black" stroke-width="1.00" />
<line x1="90148.68610004938" y1="-160976.6114322565" x2="91373.68610004938" y2="-160976.6114322565" stroke="black" stroke-width="1.00" />
<line x1="91123.68610004938" y1="-162476.6114322565" x2="91123.68610004938" y2="-160976.6114322565" stroke="black" stroke-width="1.00" />
</svg>
